<svg xmlns="http://www.w3.org/2000/svg" width="225" height="113"><g data-name="アートボード 1"><path data-name="h_deco L.svg" d="M58.763 32H37.352L24 56.5 37.352 81h21.411L45.1 56.5zm55.921 0h-49.63L51.389 56.5 65.054 81h49.63l-13.666-24.5zM82.895 65.661L74 74.949l-2.017-12.706-11.573-5.6L71.858 50.8 73.6 38.051l9.094 9.092 12.65-2.281-5.829 11.467 6.076 11.338zM202 32h-80.841l-13.665 24.5L121.159 81H202l-13.352-24.5zm-70.543 30.479l-5.8 6.062-1.317-8.293-7.553-3.653 7.472-3.816 1.137-8.319 5.934 5.934 8.256-1.489-3.8 7.484 3.965 7.4z" fill="#ba5eea" fill-rule="evenodd"/></g></svg>