<svg xmlns="http://www.w3.org/2000/svg" width="225" height="113"><g data-name="アートボード 1"><path data-name="h_deco R.svg" d="M167.237 81h21.411L202 56.5 188.648 32h-21.411L180.9 56.5zm-55.921 0h49.63l13.665-24.5L160.946 32h-49.63l13.666 24.5zM143.1 47.339l8.9-9.288 2.018 12.706 11.574 5.6-11.45 5.843-1.742 12.75-9.094-9.092-12.649 2.281 5.828-11.467-6.076-11.338zM24 81h80.841l13.665-24.5L104.841 32H24l13.352 24.5zm70.543-30.479l5.8-6.062 1.317 8.293 7.553 3.653-7.472 3.816-1.137 8.319-5.934-5.934-8.251 1.494 3.8-7.484-3.965-7.4z" fill="#ba5eea" fill-rule="evenodd"/></g></svg>